<svg width="123" height="25" viewBox="0 0 123 25" fill="none" xmlns="http://www.w3.org/2000/svg">
<g filter="url(#filter0_d)">
<path d="M14.0391 3.22656C14.0547 3.17969 14.0938 3.08594 14.1562 2.94531C14.2188 2.80469 14.25 2.71094 14.25 2.66406C14.2344 2.36719 14.0938 2.14844 13.8281 2.00781C13.5781 1.85156 13.3203 1.76562 13.0547 1.75L13.0078 1.39844C13.5391 1.42969 14.1094 1.44531 14.7188 1.44531C15.7969 1.44531 16.7656 1.40625 17.625 1.32812V1.67969L17.2734 1.70312C17.0547 1.73438 16.7812 1.80469 16.4531 1.91406C16.125 2.02344 15.8672 2.17188 15.6797 2.35938C14.9297 3.0625 14.1953 3.84375 13.4766 4.70312C12.7734 5.54688 12.0156 6.5 11.2031 7.5625C11.8438 8.39062 12.4688 9.23438 13.0781 10.0938C13.6875 10.9375 14.2266 11.6719 14.6953 12.2969C15.1641 12.9062 15.7734 13.625 16.5234 14.4531C16.8828 14.8594 17.2422 15.1328 17.6016 15.2734C17.9766 15.4141 18.4688 15.5156 19.0781 15.5781L19.0312 16.0234C16.7812 15.9297 15.6484 15.8828 15.6328 15.8828C15.1328 15.8828 14.6641 15.9062 14.2266 15.9531C12.2578 12.7812 10.7578 10.4766 9.72656 9.03906L8.53125 10.5859L8.48438 14.9688C8.48438 15.4219 9.07812 15.6484 10.2656 15.6484L10.2891 16.0234C9.78906 16.0078 9.1875 16 8.48438 16C6.9375 16 5.57031 16.0312 4.38281 16.0938V15.7188C4.38281 15.7188 4.41406 15.7188 4.47656 15.7188C5.42969 15.7188 5.96094 15.5391 6.07031 15.1797C6.17969 14.7109 6.23438 11.6016 6.23438 5.85156C6.23438 3.64844 6.21875 2.46094 6.1875 2.28906C6.14062 2.11719 5.84375 1.96875 5.29688 1.84375L4.45312 1.67969V1.32812C5.1875 1.39062 6.15625 1.42188 7.35938 1.42188C8.64062 1.42188 9.625 1.39062 10.3125 1.32812V1.79688C9.15625 1.875 8.54688 2.05469 8.48438 2.33594V9.92969L11.2031 6.76562C13 4.64062 13.9453 3.46094 14.0391 3.22656ZM30.7031 2.3125C30.7031 1.96875 30.1875 1.78125 29.1562 1.75L29.1094 1.39844C29.6406 1.42969 30.2969 1.44531 31.0781 1.44531C32.6562 1.44531 33.8828 1.40625 34.7578 1.32812V1.67969C34.7578 1.67969 34.4766 1.73438 33.9141 1.84375C33.3359 1.96875 33.0391 2.11719 33.0234 2.28906C33.0078 2.42969 33 3.19531 33 4.58594C33 11.1641 33.0469 14.6953 33.1406 15.1797C33.2031 15.5391 33.8125 15.7188 34.9688 15.7188H35.0625L35.1094 16.0234C34.3594 15.9609 33.375 15.9297 32.1562 15.9297C30.7656 15.9297 29.6875 15.9688 28.9219 16.0469L28.9453 15.6484C30.1328 15.6484 30.7266 15.4219 30.7266 14.9688V8.78125H24.1875V14.9688C24.1875 15.4219 24.7812 15.6484 25.9688 15.6484L25.9922 16.0234C25.4922 16.0078 24.8906 16 24.1875 16C22.6406 16 21.2734 16.0312 20.0859 16.0938V15.7188C20.0859 15.7188 20.1172 15.7188 20.1797 15.7188C21.1641 15.7188 21.6953 15.5391 21.7734 15.1797C21.8047 14.9922 21.8359 13.5625 21.8672 10.8906C21.8984 8.21875 21.9141 6 21.9141 4.23438C21.9141 3.03125 21.9062 2.38281 21.8906 2.28906C21.8438 2.11719 21.5781 1.96875 21.0938 1.84375L20.4141 1.67969V1.32812C21.1484 1.39062 22.0859 1.42188 23.2266 1.42188C24.4141 1.42188 25.3438 1.39062 26.0156 1.32812V1.79688C24.8125 1.875 24.2031 2.05469 24.1875 2.33594V8.24219H30.7266L30.7031 2.3125ZM42.0234 10.8906C42.0234 11.7344 42.1016 12.4688 42.2578 13.0938C42.4297 13.7031 42.6406 14.1797 42.8906 14.5234C43.1406 14.8516 43.4531 15.1172 43.8281 15.3203C44.2188 15.5078 44.5781 15.6328 44.9062 15.6953C45.2344 15.7422 45.6172 15.7656 46.0547 15.7656C46.6641 15.7656 47.1875 15.6875 47.625 15.5312C48.0781 15.375 48.4922 15.1172 48.8672 14.7578C49.2422 14.3984 49.5234 13.8828 49.7109 13.2109C49.9141 12.5234 50.0156 11.6797 50.0156 10.6797C50.0156 10.5078 50.0156 10.2969 50.0156 10.0469C50.0156 9.78125 50.0156 9.42969 50.0156 8.99219C50.0156 6.83594 49.9844 4.60156 49.9219 2.28906C49.8906 2.11719 49.5547 1.96875 48.9141 1.84375L47.9531 1.67969V1.32812C48.6875 1.39062 49.5391 1.42188 50.5078 1.42188C51.5391 1.42188 52.3984 1.39062 53.0859 1.32812V1.79688C52.3516 1.84375 51.6641 2.02344 51.0234 2.33594C50.9766 3.32031 50.9531 4.51562 50.9531 5.92188L51.0234 10.3984C51.0234 12.2891 50.5703 13.7578 49.6641 14.8047C48.7578 15.8359 47.4141 16.3828 45.6328 16.4453C45.0859 16.4453 44.5469 16.3906 44.0156 16.2812C43.4844 16.1875 42.9375 16.0078 42.375 15.7422C41.8125 15.4766 41.3203 15.1406 40.8984 14.7344C40.4922 14.3125 40.1484 13.7656 39.8672 13.0938C39.6016 12.4062 39.4688 11.6328 39.4688 10.7734C39.4688 10.7266 39.4766 10.4766 39.4922 10.0234C39.5234 9.55469 39.5547 8.89062 39.5859 8.03125C39.6172 7.17188 39.6328 6.21875 39.6328 5.17188C39.6328 4.21875 39.6172 3.25781 39.5859 2.28906C39.5547 2.11719 39.2188 1.96875 38.5781 1.84375L37.6172 1.67969V1.32812C38.3516 1.39062 39.375 1.42188 40.6875 1.42188C42.0938 1.42188 43.1406 1.39062 43.8281 1.32812V1.79688C42.9062 1.875 42.3047 2.05469 42.0234 2.33594C42.0078 3.36719 42 4.61719 42 6.08594L42.0234 10.8906ZM59.6953 15.1328C60.0391 14.6953 60.2109 14.25 60.2109 13.7969L60.2344 1.82031C58.6094 1.80469 57.7891 1.79688 57.7734 1.79688C57.3984 1.79688 57.0625 1.9375 56.7656 2.21875C56.4688 2.5 56.2422 2.85156 56.0859 3.27344C55.9297 3.67969 55.7969 4.08594 55.6875 4.49219C55.5938 4.88281 55.5391 5.25781 55.5234 5.61719H55.0781L55.1719 1.25781C56.9219 1.30469 59.1484 1.32812 61.8516 1.32812C64.3984 1.32812 66.3594 1.30469 67.7344 1.25781L67.8047 5.61719H67.3359C67.1953 3.11719 66.5469 1.85937 65.3906 1.84375L62.6484 1.82031L62.6719 13.7969C62.6719 14.3438 62.8203 14.7891 63.1172 15.1328C63.3516 15.4141 63.9922 15.5625 65.0391 15.5781V16.0234H57.8438V15.5781C57.875 15.5781 57.9219 15.5781 57.9844 15.5781C58.0469 15.5781 58.0938 15.5781 58.125 15.5781C58.9531 15.5625 59.4766 15.4141 59.6953 15.1328ZM75.0234 10.2109C73.9609 7.72656 72.625 5.36719 71.0156 3.13281C70.6562 2.63281 70.3047 2.29688 69.9609 2.125C69.5703 1.9375 69.125 1.78906 68.625 1.67969V1.32812C69.3594 1.39062 70.4453 1.42188 71.8828 1.42188C73.4141 1.42188 74.5234 1.39062 75.2109 1.32812V1.79688C74.3359 1.875 73.8359 2.00781 73.7109 2.19531C73.6328 2.35156 73.5781 2.53906 73.5469 2.75781L73.5 3.03906C74.5625 5.10156 75.6484 7.07031 76.7578 8.94531C79.0234 4.89844 80.1641 2.76562 80.1797 2.54688C80.1797 2.32812 80 2.16406 79.6406 2.05469L78.2344 1.67969V1.32812C78.9688 1.39062 79.7891 1.42188 80.6953 1.42188C81.6172 1.42188 82.4297 1.39062 83.1328 1.32812V1.79688C82.4922 1.82813 81.9688 1.96094 81.5625 2.19531C81.4219 2.28906 81.2344 2.46094 81 2.71094L80.6484 3.08594C78.8047 6.27344 77.6719 8.32031 77.25 9.22656C77.25 9.82031 77.2812 11.8047 77.3438 15.1797C77.3438 15.5703 77.9844 15.7656 79.2656 15.7656V16.2109H72.8906V15.8359C72.9375 15.8359 73.0234 15.8359 73.1484 15.8359C74.3047 15.8359 74.8906 15.6562 74.9062 15.2969C74.9375 13.4688 74.9766 11.7734 75.0234 10.2109ZM95.2734 0.695312C96.4766 0.695312 97.5 1.14062 98.3438 2.03125C98.7344 1.98438 99.0469 1.65625 99.2812 1.04688H99.6094L99.5391 5.59375C99.5391 5.59375 99.3906 5.59375 99.0938 5.59375C99.0469 5.04688 98.9844 4.53125 98.9062 4.04688C98.8281 3.54688 98.6562 3.11719 98.3906 2.75781C97.6562 1.67969 96.6016 1.14062 95.2266 1.14062C94.4922 1.14062 93.8672 1.42969 93.3516 2.00781C92.8359 2.57031 92.5781 3.15625 92.5781 3.76562C92.5781 4.42188 92.8906 5.03906 93.5156 5.61719C94.1406 6.19531 94.9688 6.67188 96 7.04688C97.4219 7.57812 98.5625 8.25781 99.4219 9.08594C100.297 9.91406 100.734 10.8438 100.734 11.875C100.734 13.2031 100.297 14.2812 99.4219 15.1094C98.5469 15.9375 97.0938 16.3516 95.0625 16.3516C94.625 16.3516 94.2031 16.3047 93.7969 16.2109C93.3906 16.1172 93.0547 16 92.7891 15.8594C92.5391 15.7188 92.2891 15.5781 92.0391 15.4375C91.8047 15.2812 91.6328 15.1562 91.5234 15.0625C91.2109 15.2031 90.9219 15.5234 90.6562 16.0234H90.1641L90.2109 11.7578H90.6797C90.9453 13.0391 91.3984 14.0312 92.0391 14.7344C92.6953 15.4375 93.6719 15.7891 94.9688 15.7891C97.1562 15.7891 98.25 14.7344 98.25 12.625C98.25 11.25 97.0938 10.1562 94.7812 9.34375C93.5312 8.90625 92.5469 8.28906 91.8281 7.49219C91.1094 6.67969 90.75 5.82031 90.75 4.91406C90.7344 2.10156 92.2422 0.695312 95.2734 0.695312ZM112.031 9.53125H107.32L105.094 14.7578C105.047 14.8359 105.023 14.9141 105.023 14.9922C105.023 15.2109 105.195 15.3906 105.539 15.5312C105.883 15.6562 106.227 15.7188 106.57 15.7188L106.594 16.0938L101.977 16.1172V15.6484C101.992 15.6484 102.008 15.6484 102.023 15.6484C102.32 15.6484 102.641 15.5859 102.984 15.4609C103.328 15.3203 103.602 15.1328 103.805 14.8984C104.07 14.5859 105.172 12.2188 107.109 7.79688L110.016 1.1875H110.789L115.922 13.3516C116.359 14.3984 116.836 15.0469 117.352 15.2969C117.492 15.3594 117.641 15.4062 117.797 15.4375C117.953 15.4531 118.102 15.4609 118.242 15.4609C118.383 15.4609 118.484 15.4688 118.547 15.4844L118.5 16.0703C117.453 16.0234 116.273 16 114.961 16C113.773 16 112.812 16.0234 112.078 16.0703L112.102 15.625C112.102 15.6406 112.242 15.6484 112.523 15.6484C113.086 15.6484 113.477 15.5156 113.695 15.25C113.805 15.125 113.859 14.9531 113.859 14.7344C113.859 14.5312 113.812 14.3047 113.719 14.0547L113.602 13.7031L112.031 9.53125ZM107.602 8.96875H111.844L109.758 3.90625L107.602 8.96875Z" fill="#5FA54E"/>
</g>
<defs>
<filter id="filter0_d" x="0.382812" y="0.695312" width="122.164" height="23.75" filterUnits="userSpaceOnUse" color-interpolation-filters="sRGB">
<feFlood flood-opacity="0" result="BackgroundImageFix"/>
<feColorMatrix in="SourceAlpha" type="matrix" values="0 0 0 0 0 0 0 0 0 0 0 0 0 0 0 0 0 0 127 0"/>
<feOffset dy="4"/>
<feGaussianBlur stdDeviation="2"/>
<feColorMatrix type="matrix" values="0 0 0 0 0 0 0 0 0 0 0 0 0 0 0 0 0 0 0.25 0"/>
<feBlend mode="normal" in2="BackgroundImageFix" result="effect1_dropShadow"/>
<feBlend mode="normal" in="SourceGraphic" in2="effect1_dropShadow" result="shape"/>
</filter>
</defs>
</svg>
